<?xml version="1.0" encoding="UTF-8"?>
<!DOCTYPE svg PUBLIC "-//W3C//DTD SVG 1.1//EN" "http://www.w3.org/Graphics/SVG/1.1/DTD/svg11.dtd">
<!-- Creator: CorelDRAW 2021 (64-Bit) -->
<svg xmlns="http://www.w3.org/2000/svg" xml:space="preserve" width="33.8667mm" height="33.8668mm" version="1.1" style="shape-rendering:geometricPrecision; text-rendering:geometricPrecision; image-rendering:optimizeQuality; fill-rule:evenodd; clip-rule:evenodd"
viewBox="0 0 26.7465 26.7466"
 xmlns:xlink="http://www.w3.org/1999/xlink"
 xmlns:xodm="http://www.corel.com/coreldraw/odm/2003">
 <defs>
  <style type="text/css">
   <![CDATA[
    .fil0 {fill:#666666}
    .fil1 {fill:white}
   ]]>
  </style>
 </defs>
 <g id="Layer_x0020_1">
  <metadata id="CorelCorpID_0Corel-Layer"/>
  <g id="_2331305321040">
   <rect class="fil0" x="2.9361" y="4.0228" width="20.8745" height="18.7008"/>
   <path class="fil1" d="M7.5799 0l11.5868 0c4.1689,0 7.5799,3.6146 7.5799,8.0327l0 10.6812c0,4.4181 -3.411,8.0327 -7.5799,8.0327l-11.5868 0c-4.1691,0 -7.5799,-3.6146 -7.5799,-8.0327l0 -10.6812c0,-4.4181 3.4108,-8.0327 7.5799,-8.0327zm-3.2906 13.3733l0 -0.0001c0,-0.649 0.501,-1.1799 1.1134,-1.1799l15.9413 0c0.6124,0 1.1134,0.5309 1.1134,1.1799l0 0.0001c0,0.649 -0.501,1.1799 -1.1134,1.1799l-15.9413 0c-0.6124,0 -1.1134,-0.5309 -1.1134,-1.1799zm0 -6.589l0 -0.0001c0,-0.649 0.501,-1.1799 1.1134,-1.1799l10.6241 0c0.6125,0 1.1134,0.5309 1.1134,1.1799l0 0.0001c0,0.6489 -0.5009,1.1799 -1.1134,1.1799l-10.6241 0c-0.6124,0 -1.1134,-0.531 -1.1134,-1.1799zm5.9593 13.2424l0 -0.0001c0,-0.649 0.5009,-1.1799 1.1134,-1.1799l9.9821 0c0.6124,0 1.1134,0.5309 1.1134,1.1799l0 0.0001c0,0.6489 -0.501,1.1799 -1.1134,1.1799l-9.9821 0c-0.6125,0 -1.1134,-0.531 -1.1134,-1.1799z"/>
  </g>
 </g>
</svg>
